# xmcd
#
# Track frame offsets: 
#        150
#        21518
#        48493
#        67948
#        87575
#        105665
#        128775
#        150115
#        171863
#        188270
#
# Disc length: 2817 seconds
#
# Revision: 0
# Processed by: cddbd v1.5.2PL0 Copyright (c) Steve Scherf et al.
# Submitted via: ExactAudioCopy v1.0b3
#
DISCID=750aff0a
DTITLE=Duy Khanh - Linh Va Doi Linh
DYEAR=1990
DGENRE=
TTITLE0=Ke o mien xa
TTITLE1=Duy Khanh, Huong Lan - Anh di chien dich
TTITLE2=Tren 4 vung chien thuat
TTITLE3=Vung truoc mat
TTITLE4=La thu cua nguoi chien si
TTITLE5=Suong trang mien que ngoai
TTITLE6=Linh nghi gi
TTITLE7=Duy Khanh, Huong Lan - De tra loi mot cau hoi
TTITLE8=24 gio phep
TTITLE9=Duy Khanh, Nhu Mai - 13 tuoi linh
EXTD=
EXTT0=
EXTT1=
EXTT2=
EXTT3=
EXTT4=
EXTT5=
EXTT6=
EXTT7=
EXTT8=
EXTT9=
PLAYORDER=
